<svg width="344" height="348" viewBox="0 0 344 348" fill="none" xmlns="http://www.w3.org/2000/svg">
<path d="M212.8 66.6153L205.6 23.7153C203.8 13.1153 211.4 5.61525 222 7.21525L301.9 19.2153C312.5 20.8153 322.5 30.8153 324.1 41.5153L336 121.115C337.6 131.815 330.3 139.015 319.6 137.615L281.2 132.515" stroke="black" stroke-width="14" stroke-miterlimit="22.9256" stroke-linecap="round" stroke-linejoin="round"/>
<path d="M318.7 37.415C305.5 116.215 285.6 119.615 221.6 183.615C215.5 189.715 203.3 191.915 197.2 185.815L157.3 146.015C151.2 139.915 153.4 127.715 159.5 121.615C223.4 57.715 226.9 37.715 305.4 24.515C323.6 21.415 321.7 19.415 318.7 37.415Z" stroke="black" stroke-width="14" stroke-miterlimit="22.9256" stroke-linecap="round" stroke-linejoin="round"/>
<path d="M139.3 131.415C148.5 137.015 149.3 152.215 141.3 165.315C133.2 178.415 119.3 184.515 110.1 178.815C100.9 173.215 100.1 158.015 108.1 144.915C116.2 131.815 130.1 125.815 139.3 131.415Z" stroke="black" stroke-width="14" stroke-miterlimit="22.9256" stroke-linecap="round" stroke-linejoin="round"/>
<path d="M119 147.615C121.7 149.215 121.9 153.715 119.6 157.515C117.2 161.315 113.2 163.115 110.5 161.515C107.8 159.915 107.6 155.415 109.9 151.615C112.2 147.715 116.3 146.015 119 147.615Z" stroke="black" stroke-width="14" stroke-miterlimit="22.9256" stroke-linecap="round" stroke-linejoin="round"/>
<path d="M211.8 203.915C206.2 194.715 191 193.915 177.9 201.915C164.8 210.015 158.7 223.915 164.4 233.115C170 242.215 185.2 243.115 198.3 235.115C211.3 227.015 217.4 213.015 211.8 203.915Z" stroke="black" stroke-width="14" stroke-miterlimit="22.9256" stroke-linecap="round" stroke-linejoin="round"/>
<path d="M195.5 224.215C193.9 221.515 189.4 221.315 185.6 223.615C181.8 226.015 180 230.015 181.6 232.715C183.2 235.415 187.7 235.615 191.5 233.315C195.4 230.915 197.2 226.915 195.5 224.215Z" stroke="black" stroke-width="14" stroke-miterlimit="22.9256" stroke-linecap="round" stroke-linejoin="round"/>
<path d="M99.8 174.415C84.9 189.315 17.4 193.015 10.8 232.215L10 232.915" stroke="black" stroke-width="14" stroke-miterlimit="22.9256" stroke-linecap="round" stroke-linejoin="round"/>
<path d="M167.7 242.315C152.8 257.215 149.1 324.715 109.9 331.315L109.2 332.115" stroke="black" stroke-width="14" stroke-miterlimit="22.9256" stroke-linecap="round" stroke-linejoin="round"/>
<path d="M119 198.515C52.7 214.415 50.3 281.915 9.1 274.415L8 274.915" stroke="black" stroke-width="14" stroke-miterlimit="22.9256" stroke-linecap="round" stroke-linejoin="round"/>
<path d="M127.2 221.715C66.2 259.515 69.4 285.015 22.5 321.115" stroke="black" stroke-width="14" stroke-miterlimit="22.9256" stroke-linecap="round" stroke-linejoin="round"/>
<path d="M137 246.615C112.7 295.815 65.5 297.815 73 338.915L72.4 340.015" stroke="black" stroke-width="14" stroke-miterlimit="22.9256" stroke-linecap="round" stroke-linejoin="round"/>
</svg>
