<svg width="348" height="348" viewBox="0 0 348 348" fill="none" xmlns="http://www.w3.org/2000/svg">
<path d="M256.3 201.9V295.2C256.3 320.2 236.2 340.7 211.7 340.7H51.6C27.1 340.7 7 320.2 7 295.2V52.5C7 27.5 27.1 7 51.6 7H211.7C236.2 7 256.3 27.5 256.3 52.5V144.3" stroke="black" stroke-width="14" stroke-miterlimit="22.9256" stroke-linecap="round" stroke-linejoin="round"/>
<path d="M234.3 201.9V283.2C234.3 304.9 222.3 319.9 201.1 319.9H62.3C41.1 319.9 29.1 304.9 29.1 283.2V64.6C29.1 42.9 41.1 27.9 62.3 27.9H201C222.3 27.9 234.2 42.9 234.2 64.6V143.9" stroke="black" stroke-width="14" stroke-miterlimit="22.9256" stroke-linecap="round" stroke-linejoin="round"/>
<path d="M99.7 141.5C99.7 103.4 86.6 69.5 66.2 47.3C45.8 69.5 29 108 30.1 149.7" stroke="black" stroke-width="14" stroke-miterlimit="22.9256" stroke-linecap="round" stroke-linejoin="round"/>
<path d="M64.9 90.1C64.9 90 64.9 89.9 64.9 89.8" stroke="black" stroke-width="14" stroke-miterlimit="22.9256" stroke-linecap="round" stroke-linejoin="round"/>
<path d="M165.3 141.5C165.3 103.4 152.2 69.5 131.8 47.3C111.4 69.5 98.3 103.4 98.3 141.5" stroke="black" stroke-width="14" stroke-miterlimit="22.9256" stroke-linecap="round" stroke-linejoin="round"/>
<path d="M230.9 141.5C230.9 103.4 217.8 69.5 197.4 47.3C177 69.5 164 103.4 164 141.5" stroke="black" stroke-width="14" stroke-miterlimit="22.9256" stroke-linecap="round" stroke-linejoin="round"/>
<path d="M28.6 173.8C28.6 158.5 40.9 146 55.9 146H250.7C265.7 146 278 158.5 278 173.8C278 189.1 265.7 201.6 250.7 201.6H55.9" stroke="black" stroke-width="14" stroke-miterlimit="22.9256" stroke-linecap="round" stroke-linejoin="round"/>
<path d="M57.4 146C72.4 146 84.7 158.5 84.7 173.8C84.7 189.1 72.4 201.6 57.4 201.6" stroke="black" stroke-width="14" stroke-miterlimit="22.9256" stroke-linecap="round" stroke-linejoin="round"/>
<path d="M131.9 90.1C131.9 90 131.9 89.9 131.9 89.8" stroke="black" stroke-width="14" stroke-miterlimit="22.9256" stroke-linecap="round" stroke-linejoin="round"/>
<path d="M197.5 90.1C197.5 90 197.5 89.9 197.5 89.8" stroke="black" stroke-width="14" stroke-miterlimit="22.9256" stroke-linecap="round" stroke-linejoin="round"/>
<path d="M303.9 199.3C303.9 217.7 340.7 216.7 340.7 197.9V149.5C340.7 130.2 303.9 130.2 303.9 149.5V199.3Z" stroke="black" stroke-width="14" stroke-miterlimit="22.9256" stroke-linecap="round" stroke-linejoin="round"/>
<path d="M277.9 173.8H302.7" stroke="black" stroke-width="14" stroke-miterlimit="22.9256" stroke-linecap="round" stroke-linejoin="round"/>
</svg>
