<svg width="362" height="363" viewBox="0 0 362 363" fill="none" xmlns="http://www.w3.org/2000/svg">
<path fill-rule="evenodd" clip-rule="evenodd" d="M285.3 55.3C288.5 52.6 293.8 53.5 297 57.2C300.2 60.9 300.2 66.1 296.9 68.7C293.7 71.4 288.4 70.5 285.2 66.8C282 63.1 282 58 285.3 55.3Z" fill="black" stroke="black" stroke-width="14" stroke-miterlimit="22.9256" stroke-linecap="round" stroke-linejoin="round"/>
<path d="M249.8 71.6C284.7 125 302.3 149.9 344.1 121.9L249.8 71.6ZM251.7 109.5C189.9 123.8 163.2 187.2 172.5 194.1C189 206.3 194.4 143.6 276.8 140.1L251.7 109.5ZM209.2 40.3L167.8 7C169.4 48.3 166.5 80.5 158.9 105L209.2 40.3ZM153 110.5L110.1 99.4C128.8 121.1 130.5 144.3 130.2 157.3L153 110.5ZM242.9 229.9L246.4 274.1C228.2 251.9 205.7 246.3 192.9 244.2L242.9 229.9ZM324.6 168.9L342.6 210.2C331.9 194.2 320.2 190.7 307.3 188.7L324.6 168.9ZM123.3 250.5C110.8 286.4 163.9 324.3 126.5 355.5L81 272.4L7 213.1C32.1 191.4 70.6 238.6 106.8 230.6C147.8 95.6 204.5 -0.700001 339.2 39.5L321.5 86.6L354.9 60.5L354.2 69C340.8 214.3 235.1 244 123.3 250.5Z" stroke="black" stroke-width="14" stroke-miterlimit="22.9256" stroke-linecap="round" stroke-linejoin="round"/>
</svg>
