<svg width="351" height="351" viewBox="0 0 351 351" fill="none" xmlns="http://www.w3.org/2000/svg">
<path d="M174.5 148.7C199.9 148.7 223 157.1 239.7 170.8C256.4 184.5 266.7 187.5 266.7 208.3C266.7 229.1 252.5 257.1 235.9 270.7C226.2 278.6 215.7 287.1 203.5 292.8H145.6C133.5 287.1 122.9 278.6 113.2 270.7C96.5 257.1 82.4 229.1 82.4 208.3C82.4 187.5 92.7 184.5 109.4 170.8C126 157.2 149 148.7 174.5 148.7Z" stroke="black" stroke-width="14" stroke-miterlimit="22.9256" stroke-linecap="round" stroke-linejoin="round"/>
<path d="M209.2 127.5C212.9 127.5 216 130.7 216 134.6C216 138.5 213 141.7 209.2 141.7C205.5 141.7 202.4 138.5 202.4 134.6C202.4 130.6 205.4 127.5 209.2 127.5Z" stroke="black" stroke-width="14" stroke-miterlimit="22.9256" stroke-linecap="round" stroke-linejoin="round"/>
<path d="M139.8 127.5C143.5 127.5 146.6 130.7 146.6 134.6C146.6 138.5 143.6 141.7 139.8 141.7C136.1 141.7 133 138.5 133 134.6C133.1 130.6 136.1 127.5 139.8 127.5Z" stroke="black" stroke-width="14" stroke-miterlimit="22.9256" stroke-linecap="round" stroke-linejoin="round"/>
<path d="M306.5 105.8C285.5 61.9 314.9 37.6 296.8 7C316 8.9 330.4 11.8 338.6 40.6C348.5 75.5 343.3 127.1 320.7 134.5C298.2 142 266.9 102.5 257 67.6C248.8 38.9 259.2 27.9 274 14.6C277.2 11.8 273.4 39.6 299.2 60.4" stroke="black" stroke-width="14" stroke-miterlimit="22.9256" stroke-linecap="round" stroke-linejoin="round"/>
<path d="M41.4 99.6C80.1 73.3 66.3 36.2 96.2 19.8C78.8 11 65 5.49996 44.4 25.9C19.4 50.5 -0.300005 97.9 15.6 116.6C31.5 135.3 77 118.4 102 93.8C122.5 73.6 118.8 58.4 112.3 38.9C110.9 34.7 101 60.8 69 64.5" stroke="black" stroke-width="14" stroke-miterlimit="22.9256" stroke-linecap="round" stroke-linejoin="round"/>
<path d="M31.8 126.2C41.1 189.1 70.1 191 82.9 193.9" stroke="black" stroke-width="14" stroke-miterlimit="22.9256" stroke-linecap="round" stroke-linejoin="round"/>
<path d="M7 197.1C41.5 229.8 84.1 225.1 84.1 225.1" stroke="black" stroke-width="14" stroke-miterlimit="22.9256" stroke-linecap="round" stroke-linejoin="round"/>
<path d="M41.8 308.7C55.9 273.4 48.7 262.6 62.5 259C80.7 254.2 92.4 246.1 92.4 246.1" stroke="black" stroke-width="14" stroke-miterlimit="22.9256" stroke-linecap="round" stroke-linejoin="round"/>
<path d="M97.2 343.5C94.2 309.1 84.3 303.8 93.7 294.5C106.1 282.3 112 270.4 112 270.4" stroke="black" stroke-width="14" stroke-miterlimit="22.9256" stroke-linecap="round" stroke-linejoin="round"/>
<path d="M318.1 136.7C308.8 189.8 279.8 191.4 267 193.9" stroke="black" stroke-width="14" stroke-miterlimit="22.9256" stroke-linecap="round" stroke-linejoin="round"/>
<path d="M342.9 197.1C308.4 229.8 265.8 225.1 265.8 225.1" stroke="black" stroke-width="14" stroke-miterlimit="22.9256" stroke-linecap="round" stroke-linejoin="round"/>
<path d="M308.1 308.7C294 273.4 301.2 262.6 287.4 259C269.2 254.2 257.5 246.1 257.5 246.1" stroke="black" stroke-width="14" stroke-miterlimit="22.9256" stroke-linecap="round" stroke-linejoin="round"/>
<path d="M252.7 343.5C255.7 309.1 265.6 303.8 256.2 294.5C243.8 282.3 237.9 270.4 237.9 270.4" stroke="black" stroke-width="14" stroke-miterlimit="22.9256" stroke-linecap="round" stroke-linejoin="round"/>
</svg>
