<svg width="343" height="343" viewBox="0 0 343 343" fill="none" xmlns="http://www.w3.org/2000/svg">
<path d="M273.447 7C249.947 21.4 251.147 18.4 233.347 25.5L194.147 38.9L105.347 71.4L128.547 169.3C269.447 145.1 357.147 33.5 330.447 25L272.947 34.7" stroke="black" stroke-width="14" stroke-miterlimit="22.9256" stroke-linecap="round" stroke-linejoin="round"/>
<path d="M235.947 25.2C222.447 29.2 214.647 43.4 218.647 57C222.547 70.6 236.747 78.5 250.247 74.5C263.747 70.5 271.547 56.3 267.547 42.7C263.547 29.1 249.447 21.2 235.947 25.2Z" stroke="black" stroke-width="14" stroke-miterlimit="22.9256" stroke-linecap="round" stroke-linejoin="round"/>
<path d="M105.447 71.3C66.0472 84 37.4472 101.8 18.6472 126.7L112.047 197L130.147 169.8" stroke="black" stroke-width="14" stroke-miterlimit="22.9256" stroke-linecap="round" stroke-linejoin="round"/>
<path d="M26.5472 132.7C7.54719 157.6 4.54719 195.6 8.54719 220.3L107.947 228.5L111.947 196.9" stroke="black" stroke-width="14" stroke-miterlimit="22.9256" stroke-linecap="round" stroke-linejoin="round"/>
<path d="M24.4472 221.6C25.0472 256.4 49.6472 284.9 60.6472 299.9L112.847 256.7L108.047 228.5" stroke="black" stroke-width="14" stroke-miterlimit="22.9256" stroke-linecap="round" stroke-linejoin="round"/>
<path d="M72.9472 294.7C98.4472 318.7 132.847 328 166.647 335.2L169.147 291.6L112.847 256.7" stroke="black" stroke-width="14" stroke-miterlimit="22.9256" stroke-linecap="round" stroke-linejoin="round"/>
<path d="M167.147 325.5C196.647 322.4 230.047 312.6 259.747 288.4L271.047 216.6L169.147 291.6" stroke="black" stroke-width="14" stroke-miterlimit="22.9256" stroke-linecap="round" stroke-linejoin="round"/>
<path d="M135.647 168.9L179.547 230.1" stroke="black" stroke-width="14" stroke-miterlimit="22.9256" stroke-linecap="round" stroke-linejoin="round"/>
<path d="M116.947 189.5L174.047 244.8" stroke="black" stroke-width="14" stroke-miterlimit="22.9256" stroke-linecap="round" stroke-linejoin="round"/>
<path d="M109.447 216.8L170.847 259.8" stroke="black" stroke-width="14" stroke-miterlimit="22.9256" stroke-linecap="round" stroke-linejoin="round"/>
<path fill-rule="evenodd" clip-rule="evenodd" d="M245.147 34.6C240.747 35.9 238.247 40.5 239.547 44.8C240.847 49.2 245.447 51.7 249.847 50.4C254.247 49.1 256.747 44.5 255.447 40.2C254.147 35.8 249.547 33.3 245.147 34.6Z" fill="#334D5F" stroke="black" stroke-width="14" stroke-miterlimit="22.9256" stroke-linecap="round" stroke-linejoin="round"/>
</svg>
