<svg width="380" height="380" viewBox="0 0 380 380" fill="none" xmlns="http://www.w3.org/2000/svg">
<g clip-path="url(#clip0_2_3358)">
<path d="M38.8 148.4C30.6 158 53.1 183.2 62.4 192.2C70.8 200.3 81.1 209.5 93 219.3C104.8 229.1 118.2 239.5 132.5 250C146.8 260.5 160.8 270.2 173.8 278.6C186.8 287 201.8 297.1 212.2 302.8" stroke="black" stroke-width="14" stroke-miterlimit="22.9256" stroke-linecap="round" stroke-linejoin="round"/>
<path d="M212.3 302.8C255.7 325.9 279.5 290.8 285 271.3C298.5 223.5 273.1 173.2 302.1 119.7C254.5 114 167.7 219 47.7 153" stroke="black" stroke-width="14" stroke-miterlimit="22.9256" stroke-linecap="round" stroke-linejoin="round"/>
<path d="M38.8 148.4C169.5 177.5 258.1 106.9 274.4 73.6C280.3 61.5 286.9 52.4 312.7 47.3" stroke="black" stroke-width="14" stroke-miterlimit="22.9256" stroke-linecap="round" stroke-linejoin="round"/>
<path d="M307.3 47.1C354.7 44.5 374.9 134.5 302.1 119.8" stroke="black" stroke-width="14" stroke-miterlimit="22.9256" stroke-linecap="round" stroke-linejoin="round"/>
<path d="M43 316.6L39.4 348.5L72.7 337.3" stroke="black" stroke-width="14" stroke-miterlimit="22.9256" stroke-linecap="round" stroke-linejoin="round"/>
<path d="M207.2 299.9L162.5 328.8" stroke="black" stroke-width="14" stroke-miterlimit="22.9256" stroke-linecap="round" stroke-linejoin="round"/>
<path d="M50.7 189L30 236" stroke="black" stroke-width="14" stroke-miterlimit="22.9256" stroke-linecap="round" stroke-linejoin="round"/>
<path d="M32.5 236.8C35 240.5 39.2 245.1 44.7 250.5C50.2 255.8 57.2 261.8 65.1 268.2C73 274.6 82 281.3 91.7 288.1C101.4 294.9 110.8 301 119.6 306.4C128.4 311.8 136.6 316.3 143.7 319.8C150.8 323.3 156.9 325.8 161.5 327.1" stroke="black" stroke-width="14" stroke-miterlimit="22.9256" stroke-linecap="round" stroke-linejoin="round"/>
<path d="M129.1 315.8L97.9 338" stroke="black" stroke-width="14" stroke-miterlimit="22.9256" stroke-linecap="round" stroke-linejoin="round"/>
<path d="M53.4 261.3L37 293.8" stroke="black" stroke-width="14" stroke-miterlimit="22.9256" stroke-linecap="round" stroke-linejoin="round"/>
<path d="M34.4 296.9C32.8 298.7 39.2 304.9 40.7 306.3C43.1 308.7 46.2 311.3 49.7 314.1C53.2 316.9 57.2 319.9 61.4 322.9C65.7 325.9 69.8 328.6 73.7 331C77.6 333.4 81.2 335.4 84.3 336.9C87.4 338.5 90.1 339.6 92.1 340.1C94.1 340.7 95.5 340.7 96 340.1" stroke="black" stroke-width="14" stroke-miterlimit="22.9256" stroke-linecap="round" stroke-linejoin="round"/>
<path d="M310 46.6001C305.4 46.9001 243.6 47.8001 209 38.6001C90 6.70007 31.1 81.7001 37.1 152.9" stroke="black" stroke-width="14" stroke-miterlimit="22.9256" stroke-linecap="round" stroke-linejoin="round"/>
</g>
<defs>
<clipPath id="clip0_2_3358">
<rect width="333.9" height="331.5" fill="white" transform="translate(23 24)"/>
</clipPath>
</defs>
</svg>
