<svg width="380" height="380" viewBox="0 0 380 380" fill="none" xmlns="http://www.w3.org/2000/svg">
<g clip-path="url(#clip0_2_3119)">
<path d="M270 286.4V328.5C270 336.9 263.6 343.8 255.8 343.8H210.1" stroke="black" stroke-width="14" stroke-miterlimit="22.9256" stroke-linecap="round" stroke-linejoin="round"/>
<path d="M169.7 343.8H124C116.2 343.8 109.8 336.9 109.8 328.5V286.4" stroke="black" stroke-width="14" stroke-miterlimit="22.9256" stroke-linecap="round" stroke-linejoin="round"/>
<path d="M362.5 219.3L350.7 228.3L350.2 228.5C311.9 244.8 248.5 298.6 206.7 340.6C197.6 358.6 181.9 358.6 172.8 340.6C130.9 298.5 67.6 244.7 29.3 228.5L28.8 228.3L17 219.3C16.5 215.4 16.2 211.5 16 207.5C16.1 205.2 16.1 202.5 16.1 199.4C16.1 144.2 42.3 95.0001 83 63.5001C110.6 42.1001 145 28.8001 182.4 27.2001L184.3 27.1001H186C187.1 27.1001 188.2 27.1001 189.4 27.1001H189.7H190H190.3C191.4 27.1001 192.5 27.1001 193.7 27.1001H195.4L197.3 27.2001C234.7 28.8001 269 42.1001 296.7 63.5001C337.4 95.1001 363.6 144.2 363.6 199.4C363.6 202.5 363.7 205.2 363.7 207.5C363.3 211.5 363 215.5 362.5 219.3Z" stroke="black" stroke-width="14" stroke-miterlimit="22.9256" stroke-linecap="round" stroke-linejoin="round"/>
<path d="M190 27V154.9" stroke="black" stroke-width="14" stroke-miterlimit="22.9256" stroke-linecap="round" stroke-linejoin="round"/>
<path d="M137.9 37.2L160.7 155.1" stroke="black" stroke-width="14" stroke-miterlimit="22.9256" stroke-linecap="round" stroke-linejoin="round"/>
<path d="M89.2 65.3C112 113.5 118.5 130.8 131.6 165.5" stroke="black" stroke-width="14" stroke-miterlimit="22.9256" stroke-linecap="round" stroke-linejoin="round"/>
<path d="M48.2 110.6C82.2 138.1 92.2 166.2 111.5 196.9" stroke="black" stroke-width="14" stroke-miterlimit="22.9256" stroke-linecap="round" stroke-linejoin="round"/>
<path d="M21.3 171.4C65.7001 183.4 80.1 209.5 106 235.8" stroke="black" stroke-width="14" stroke-miterlimit="22.9256" stroke-linecap="round" stroke-linejoin="round"/>
<path d="M242 37.2L215.6 173.3" stroke="black" stroke-width="14" stroke-miterlimit="22.9256" stroke-linecap="round" stroke-linejoin="round"/>
<path d="M290.8 65.3C268 113.5 252 150.3 238.9 185" stroke="black" stroke-width="14" stroke-miterlimit="22.9256" stroke-linecap="round" stroke-linejoin="round"/>
<path d="M331.8 110.6C297.8 138.1 276.2 182.2 256.9 212.9" stroke="black" stroke-width="14" stroke-miterlimit="22.9256" stroke-linecap="round" stroke-linejoin="round"/>
<path d="M358.7 171.4C314.3 183.4 267.4 244.4 241.5 270.8" stroke="black" stroke-width="14" stroke-miterlimit="22.9256" stroke-linecap="round" stroke-linejoin="round"/>
<path d="M234.2 181.8C258.4 196 267.8 230.5 247.2 262.6C226.6 294.7 199.8 305.7 175.6 291.5C151.4 277.3 144.3 241.4 159.7 211.2C175.1 181.1 210 167.6 234.2 181.8Z" stroke="black" stroke-width="14" stroke-miterlimit="22.9256" stroke-linecap="round" stroke-linejoin="round"/>
<path d="M153.3 261.8C133.2 258.7 110.7 255.7 105.9 235.8C99.2001 208 124 168 154 159.7C175.8 153.7 197.4 160.3 210.2 174.9" stroke="black" stroke-width="14" stroke-miterlimit="22.9256" stroke-linecap="round" stroke-linejoin="round"/>
</g>
<defs>
<clipPath id="clip0_2_3119">
<rect width="361.5" height="341.2" fill="white" transform="translate(9 20)"/>
</clipPath>
</defs>
</svg>
